<svg xmlns="http://www.w3.org/2000/svg" viewBox="0 0 960 540" role="img" aria-labelledby="title desc">
  <title id="title">BB-VLA brain body framework for palletizing</title>
  <desc id="desc">A brain-body VLA framework splits reasoning and embodied control for palletizing tasks.</desc>
  <rect width="960" height="540" rx="28" fill="#f7fcff"/>
  <rect x="74" y="76" width="812" height="388" rx="24" fill="#ffffff" stroke="#b8dced" stroke-width="3"/>
  <text x="112" y="128" fill="#146c94" font-family="Inter, Arial, sans-serif" font-size="28" font-weight="700">BB-VLA</text>
  <text x="112" y="164" fill="#5f7180" font-family="Inter, Arial, sans-serif" font-size="18">brain-body reasoning for palletizing</text>
  <rect x="126" y="220" width="210" height="132" rx="18" fill="#e8f6ff" stroke="#43b7e8" stroke-width="3"/>
  <text x="231" y="272" text-anchor="middle" fill="#0f3550" font-family="Inter, Arial, sans-serif" font-size="25" font-weight="700">Brain</text>
  <text x="231" y="305" text-anchor="middle" fill="#5f7180" font-family="Inter, Arial, sans-serif" font-size="17">task reasoning</text>
  <rect x="404" y="220" width="210" height="132" rx="18" fill="#e9fbf8" stroke="#40b8ad" stroke-width="3"/>
  <text x="509" y="272" text-anchor="middle" fill="#0f3550" font-family="Inter, Arial, sans-serif" font-size="25" font-weight="700">Body</text>
  <text x="509" y="305" text-anchor="middle" fill="#5f7180" font-family="Inter, Arial, sans-serif" font-size="17">motion control</text>
  <path d="M348 286h44" stroke="#146c94" stroke-width="5" stroke-linecap="round"/>
  <path d="M392 286l-16-10v20z" fill="#146c94"/>
  <g transform="translate(682 205)">
    <rect x="0" y="96" width="50" height="40" rx="8" fill="#43b7e8"/>
    <rect x="56" y="96" width="50" height="40" rx="8" fill="#40b8ad"/>
    <rect x="112" y="96" width="50" height="40" rx="8" fill="#43b7e8"/>
    <rect x="28" y="50" width="50" height="40" rx="8" fill="#40b8ad"/>
    <rect x="84" y="50" width="50" height="40" rx="8" fill="#43b7e8"/>
    <rect x="56" y="4" width="50" height="40" rx="8" fill="#40b8ad"/>
  </g>
  <path d="M626 286h42" stroke="#146c94" stroke-width="5" stroke-linecap="round"/>
  <path d="M668 286l-16-10v20z" fill="#146c94"/>
  <text x="763" y="390" text-anchor="middle" fill="#0f3550" font-family="Inter, Arial, sans-serif" font-size="20" font-weight="700">palletizing</text>
</svg>
