<svg xmlns="http://www.w3.org/2000/svg" viewBox="0 0 960 540" role="img" aria-labelledby="title desc">
  <title id="title">Spacecraft docking data generation and imitation learning</title>
  <desc id="desc">A learning data pipeline generates demonstrations for imitation learning in robot arm docking assistance.</desc>
  <rect width="960" height="540" rx="28" fill="#f7fcff"/>
  <rect x="74" y="76" width="812" height="388" rx="24" fill="#ffffff" stroke="#b8dced" stroke-width="3"/>
  <text x="112" y="128" fill="#146c94" font-family="Inter, Arial, sans-serif" font-size="26" font-weight="700">Docking data pipeline</text>
  <text x="112" y="164" fill="#5f7180" font-family="Inter, Arial, sans-serif" font-size="18">demonstrations to imitation policy</text>
  <rect x="118" y="226" width="170" height="96" rx="16" fill="#e8f6ff" stroke="#43b7e8" stroke-width="3"/>
  <text x="203" y="264" text-anchor="middle" fill="#0f3550" font-family="Inter, Arial, sans-serif" font-size="20" font-weight="700">Bilateral</text>
  <text x="203" y="292" text-anchor="middle" fill="#5f7180" font-family="Inter, Arial, sans-serif" font-size="16">control data</text>
  <rect x="376" y="202" width="190" height="144" rx="18" fill="#ffffff" stroke="#b8dced" stroke-width="3"/>
  <path d="M414 292c32-62 74-72 116-26" fill="none" stroke="#43b7e8" stroke-width="7" stroke-linecap="round"/>
  <path d="M414 316c34-40 78-50 122-22" fill="none" stroke="#40b8ad" stroke-width="5" stroke-linecap="round"/>
  <text x="471" y="390" text-anchor="middle" fill="#146c94" font-family="Inter, Arial, sans-serif" font-size="20" font-weight="700">demonstrations</text>
  <rect x="664" y="226" width="170" height="96" rx="16" fill="#e9fbf8" stroke="#40b8ad" stroke-width="3"/>
  <text x="749" y="264" text-anchor="middle" fill="#0f3550" font-family="Inter, Arial, sans-serif" font-size="20" font-weight="700">Imitation</text>
  <text x="749" y="292" text-anchor="middle" fill="#5f7180" font-family="Inter, Arial, sans-serif" font-size="16">docking policy</text>
  <g stroke="#146c94" stroke-width="5" stroke-linecap="round">
    <path d="M300 274h62"/>
    <path d="M580 274h70"/>
  </g>
  <g fill="#146c94">
    <path d="M362 274l-17-10v20zM650 274l-17-10v20z"/>
  </g>
  <circle cx="816" cy="178" r="18" fill="#43b7e8" opacity=".75"/>
  <circle cx="850" cy="146" r="10" fill="#40b8ad" opacity=".75"/>
</svg>
