<svg xmlns="http://www.w3.org/2000/svg" viewBox="0 0 960 540" role="img" aria-labelledby="title desc">
  <title id="title">Kalman-conditioned ACT dynamic grasping overview</title>
  <desc id="desc">A moving target is estimated by a Kalman filter and converted into action chunks for robotic grasping.</desc>
  <rect width="960" height="540" rx="28" fill="#f7fcff"/>
  <rect x="72" y="76" width="816" height="388" rx="24" fill="#ffffff" stroke="#b8dced" stroke-width="3"/>
  <text x="112" y="128" fill="#146c94" font-family="Inter, Arial, sans-serif" font-size="28" font-weight="700">Dynamic grasping</text>
  <text x="112" y="164" fill="#5f7180" font-family="Inter, Arial, sans-serif" font-size="18">Kalman-conditioned action chunks</text>
  <path d="M132 342c92-120 199-126 308-74 106 50 199 32 318-82" fill="none" stroke="#43b7e8" stroke-width="6" stroke-linecap="round"/>
  <path d="M152 363c94-94 189-100 286-48 112 60 205 38 346-70" fill="none" stroke="#40b8ad" stroke-width="3" stroke-dasharray="12 12" stroke-linecap="round"/>
  <circle cx="186" cy="303" r="20" fill="#43b7e8"/>
  <circle cx="390" cy="262" r="20" fill="#43b7e8"/>
  <circle cx="622" cy="252" r="20" fill="#43b7e8"/>
  <rect x="258" y="186" width="164" height="72" rx="14" fill="#e8f6ff" stroke="#43b7e8" stroke-width="3"/>
  <text x="340" y="230" text-anchor="middle" fill="#0f3550" font-family="Inter, Arial, sans-serif" font-size="22" font-weight="700">Kalman state</text>
  <rect x="476" y="328" width="210" height="76" rx="14" fill="#ffffff" stroke="#b8dced" stroke-width="3"/>
  <text x="581" y="362" text-anchor="middle" fill="#0f3550" font-family="Inter, Arial, sans-serif" font-size="20" font-weight="700">ACT action chunks</text>
  <g fill="#43b7e8">
    <rect x="514" y="376" width="26" height="10" rx="5"/>
    <rect x="548" y="376" width="42" height="10" rx="5"/>
    <rect x="598" y="376" width="26" height="10" rx="5"/>
    <rect x="632" y="376" width="22" height="10" rx="5"/>
  </g>
  <g stroke="#0f3550" stroke-width="7" stroke-linecap="round" fill="none">
    <path d="M734 320l56-48 34 40"/>
    <path d="M790 272l28-48"/>
    <path d="M824 312l30-34"/>
  </g>
  <circle cx="792" cy="270" r="14" fill="#40b8ad"/>
</svg>
