<svg xmlns="http://www.w3.org/2000/svg" viewBox="0 0 960 540" role="img" aria-labelledby="title desc">
  <title id="title">RetoVLA architecture overview</title>
  <desc id="desc">A visual-language-action pipeline using register tokens as spatial context for action generation.</desc>
  <rect width="960" height="540" rx="28" fill="#f7fcff"/>
  <g stroke="#c7e5f3" stroke-width="2">
    <path d="M80 100h800M80 180h800M80 260h800M80 340h800M80 420h800"/>
    <path d="M160 70v400M280 70v400M400 70v400M520 70v400M640 70v400M760 70v400"/>
  </g>
  <rect x="72" y="78" width="816" height="384" rx="24" fill="#ffffff" stroke="#b8dced" stroke-width="3"/>
  <g fill="#146c94" font-family="Inter, Arial, sans-serif" font-weight="700">
    <text x="120" y="130" font-size="30">RetoVLA</text>
    <text x="120" y="168" fill="#5f7180" font-size="18">register tokens as spatial context</text>
  </g>
  <rect x="118" y="230" width="160" height="86" rx="16" fill="#e8f6ff" stroke="#43b7e8" stroke-width="3"/>
  <text x="198" y="267" text-anchor="middle" fill="#0f3550" font-family="Inter, Arial, sans-serif" font-size="21" font-weight="700">Vision</text>
  <text x="198" y="294" text-anchor="middle" fill="#5f7180" font-family="Inter, Arial, sans-serif" font-size="16">patch features</text>
  <rect x="390" y="178" width="182" height="190" rx="18" fill="#ffffff" stroke="#b8dced" stroke-width="3"/>
  <g fill="#43b7e8">
    <circle cx="430" cy="222" r="16"/><circle cx="478" cy="222" r="16"/><circle cx="526" cy="222" r="16"/>
    <circle cx="430" cy="274" r="16"/><circle cx="478" cy="274" r="16"/><circle cx="526" cy="274" r="16"/>
    <circle cx="430" cy="326" r="16"/><circle cx="478" cy="326" r="16"/><circle cx="526" cy="326" r="16"/>
  </g>
  <text x="481" y="406" text-anchor="middle" fill="#146c94" font-family="Inter, Arial, sans-serif" font-size="20" font-weight="700">Register tokens</text>
  <rect x="684" y="230" width="158" height="86" rx="16" fill="#e9fbf8" stroke="#40b8ad" stroke-width="3"/>
  <text x="763" y="267" text-anchor="middle" fill="#0f3550" font-family="Inter, Arial, sans-serif" font-size="21" font-weight="700">Action</text>
  <text x="763" y="294" text-anchor="middle" fill="#5f7180" font-family="Inter, Arial, sans-serif" font-size="16">7-DOF policy</text>
  <g fill="none" stroke-linecap="round" stroke-width="5">
    <path d="M286 273h88" stroke="#146c94"/>
    <path d="M582 273h86" stroke="#146c94"/>
    <path d="M624 220c36-52 112-62 152-22" stroke="#40b8ad"/>
  </g>
  <g fill="#146c94">
    <path d="M374 273l-17-10v20zM668 273l-17-10v20z"/>
  </g>
</svg>
